<?xml version="1.0" encoding="iso-8859-1"?>
<!-- Generator: Adobe Illustrator 19.0.0, SVG Export Plug-In . SVG Version: 6.00 Build 0)  -->
<svg version="1.1" id="Layer_1" xmlns="http://www.w3.org/2000/svg" xmlns:xlink="http://www.w3.org/1999/xlink" x="0px" y="0px"
	 viewBox="0 0 512 512" style="enable-background:new 0 0 512 512;" xml:space="preserve">
<g>
	<g>
		<path d="M458.035,102.56h-79.333V62.796c0-24.515-19.943-44.457-44.457-44.457H177.755c-24.513,0-44.457,19.943-44.457,44.457
			v39.762H53.965C24.161,102.56,0,126.721,0,156.525v31.647c0,6.93,5.619,12.549,12.549,12.549h486.902
			c6.93,0,12.549-5.619,12.549-12.549v-31.647C512,126.721,487.839,102.56,458.035,102.56z M332.967,102.56H179.033V64.074h153.935
			V102.56z" fill="#a3a3a3"/>
	</g>
</g>
<g>
	<g>
		<path d="M386.51,234.622v67.73c0,4.448-3.607,8.056-8.056,8.056H340.28c-4.45,0-8.056-3.607-8.056-8.056v-67.731H179.777v67.731
			c0,4.448-3.606,8.056-8.056,8.056h-38.174c-4.45,0-8.056-3.607-8.056-8.056v-67.731h-98.99v246.491
			c0,6.93,5.619,12.549,12.549,12.549h433.898c6.93,0,12.549-5.619,12.549-12.549v-246.49H386.51z" fill="#a3a3a3"/>
	</g>
</g>
<g>
</g>
<g>
</g>
<g>
</g>
<g>
</g>
<g>
</g>
<g>
</g>
<g>
</g>
<g>
</g>
<g>
</g>
<g>
</g>
<g>
</g>
<g>
</g>
<g>
</g>
<g>
</g>
<g>
</g>
</svg>
